<svg xmlns="http://www.w3.org/2000/svg" viewBox="0 0 455 455" width="512" height="512"><g fill="#393939" fill-rule="evenodd" clip-rule="evenodd"><path d="M330.896 223.172c-6.994.923-12.77 4.387-18.214 8.558-6.072 4.643-11.146 10.323-16.395 15.848-.702.742-.371 1.133.14 1.7 3.66 4.116 7.46 8.132 11.787 11.596 7.15 5.756 14.886 10.203 24.326 11.065 10.634.998 19.252-3.976 23.048-13.612 1.313-3.329 1.865-6.814 1.88-10.89.04-1.018-.115-2.507-.311-4.016-1.665-13.355-12.925-22.009-26.261-20.249zm-88.722 8.227c-4.522-3.269-9.301-6.187-14.785-7.541-8.363-2.076-15.958-.882-21.895 5.916-4.602 5.284-6.814 11.537-6.799 18.957.04.687.12 1.785.216 2.878.902 10.343 7.816 18.134 17.823 19.959 5.505 1.018 10.849.271 16.059-1.745 11.085-4.327 19.528-12.083 27.244-20.817.566-.627.276-.943-.156-1.414-5.524-5.795-11.164-11.49-17.707-16.193z"/><path d="M0 0v455h455V0H0zm381.208 268.691c-7.561 21.032-25.048 33.015-47.414 32.744-13.612-.155-25.244-5.425-35.843-13.477-6.929-5.249-12.865-11.552-18.585-18.074-.938-1.078-1.389-1.334-2.562-.121-5.836 6.051-11.381 12.419-17.944 17.763-8.282 6.738-17.448 11.812-28.142 13.281-18.957 2.562-35.311-2.432-48.041-17.292-2.878-3.369-5.054-7.21-6.854-11.281-.216-.511-.296-1.118-.863-1.549-2.507 5.385-5.6 10.338-9.636 14.65-10.223 10.85-22.817 16.51-37.677 17.036-10.754.371-21.273-.978-31.065-5.64-16.43-7.776-25.459-20.722-26.573-39.011-.08-1.389.291-1.745 1.68-1.745 8.834.06 17.668.06 26.502 0 1.309 0 1.685.391 1.915 1.685 1.705 10.067 7.109 17.082 17.277 19.604 14.158 3.53 27.164-4.522 30.884-19.092 2.527-9.812 1.429-19.212-5.094-27.38-4.307-5.425-10.163-8.067-17.056-8.558-9.912-.707-18.019 2.567-23.875 10.789-.547.782-1.173.963-2.055.963-7.972-.02-15.924-.04-23.875.02-1.389 0-1.665-.376-1.429-1.684 4.131-22.973 8.227-45.93 12.318-68.903.566-3.134 1.138-6.282 1.645-9.416.176-1.043.572-1.434 1.685-1.434 26.442.04 52.859.04 79.281 0 1.253 0 1.544.411 1.524 1.589a1159.84 1159.84 0 0 0 .02 21.268c0 1.429-.351 1.82-1.82 1.82-18.937-.04-37.878 0-56.815-.055-1.564 0-2.251.251-2.547 2.015-1.685 10.067-3.525 20.115-5.284 30.177-.06.431-.376 1.023.095 1.294.511.316.802-.311 1.098-.607 8.674-8.343 19.253-10.909 30.924-10.283 11.241.607 20.817 4.818 28.728 12.81 3.294 3.329 5.856 7.189 7.932 11.381.215.446.451.897.862 1.7 2.231-5.891 4.973-11.025 8.894-15.472 8.593-9.771 19.428-15.021 32.333-16.214 18.155-1.685 33.075 5.344 46.141 17.272 5.425 4.938 10.223 10.458 14.926 16.079.998 1.198 1.449 1.293 2.507.04 6.052-7.205 12.103-14.434 19.543-20.27 8.618-6.753 18.074-11.632 29.084-12.905 27.164-3.174 49.86 11.612 55.656 39.658 2.433 11.792 1.685 23.464-2.405 34.825z"/></g></svg>